<svg xmlns="http://www.w3.org/2000/svg" xmlns:xlink="http://www.w3.org/1999/xlink" width="231" zoomAndPan="magnify" viewBox="0 0 173.25 173.249997" height="231" preserveAspectRatio="xMidYMid meet" version="1.0"><defs><clipPath id="8deb3f5bc6"><path d="M 0 0 L 172.503906 0 L 172.503906 172.503906 L 0 172.503906 Z M 0 0 " clip-rule="nonzero"/></clipPath><clipPath id="efc43e5c43"><path d="M 0 0 L 172.054688 0 L 172.054688 172.054688 L 0 172.054688 Z M 0 0 " clip-rule="nonzero"/></clipPath><clipPath id="4a861fcc35"><path d="M 26.882812 0 L 145.171875 0 C 160.019531 0 172.054688 12.035156 172.054688 26.882812 L 172.054688 145.171875 C 172.054688 160.019531 160.019531 172.054688 145.171875 172.054688 L 26.882812 172.054688 C 12.035156 172.054688 0 160.019531 0 145.171875 L 0 26.882812 C 0 12.035156 12.035156 0 26.882812 0 Z M 26.882812 0 " clip-rule="nonzero"/></clipPath><clipPath id="91e56e9f5a"><path d="M 70.035156 70.039062 L 101.875 70.039062 L 101.875 101.878906 L 70.035156 101.878906 Z M 70.035156 70.039062 " clip-rule="nonzero"/></clipPath><clipPath id="2f8bf75778"><path d="M 85.957031 70.039062 C 77.164062 70.039062 70.035156 77.164062 70.035156 85.957031 C 70.035156 94.75 77.164062 101.878906 85.957031 101.878906 C 94.746094 101.878906 101.875 94.75 101.875 85.957031 C 101.875 77.164062 94.746094 70.039062 85.957031 70.039062 Z M 85.957031 70.039062 " clip-rule="nonzero"/></clipPath><clipPath id="0855273176"><path d="M 42 43 L 130 43 L 130 130.519531 L 42 130.519531 Z M 42 43 " clip-rule="nonzero"/></clipPath><clipPath id="f351e5e66c"><path d="M 51.035156 111.761719 L 70.035156 111.761719 L 70.035156 130.761719 L 51.035156 130.761719 Z M 51.035156 111.761719 " clip-rule="nonzero"/></clipPath><clipPath id="aa22df2a8b"><path d="M 60.535156 111.761719 C 55.289062 111.761719 51.035156 116.015625 51.035156 121.261719 C 51.035156 126.507812 55.289062 130.761719 60.535156 130.761719 C 65.78125 130.761719 70.035156 126.507812 70.035156 121.261719 C 70.035156 116.015625 65.78125 111.761719 60.535156 111.761719 Z M 60.535156 111.761719 " clip-rule="nonzero"/></clipPath><clipPath id="1d7df19c45"><path d="M 13 14 L 161 14 L 161 161.933594 L 13 161.933594 Z M 13 14 " clip-rule="nonzero"/></clipPath><clipPath id="24b6f339b0"><path d="M 145.585938 58.875 L 164.585938 58.875 L 164.585938 77.875 L 145.585938 77.875 Z M 145.585938 58.875 " clip-rule="nonzero"/></clipPath><clipPath id="f62a344908"><path d="M 155.085938 58.875 C 149.839844 58.875 145.585938 63.128906 145.585938 68.375 C 145.585938 73.621094 149.839844 77.875 155.085938 77.875 C 160.332031 77.875 164.585938 73.621094 164.585938 68.375 C 164.585938 63.128906 160.332031 58.875 155.085938 58.875 Z M 155.085938 58.875 " clip-rule="nonzero"/></clipPath><clipPath id="19daac09fd"><path d="M 92.375 39.878906 L 111.375 39.878906 L 111.375 58.875 L 92.375 58.875 Z M 92.375 39.878906 " clip-rule="nonzero"/></clipPath><clipPath id="147d687c9e"><path d="M 101.875 39.878906 C 96.628906 39.878906 92.375 44.128906 92.375 49.375 C 92.375 54.621094 96.628906 58.875 101.875 58.875 C 107.121094 58.875 111.375 54.621094 111.375 49.375 C 111.375 44.128906 107.121094 39.878906 101.875 39.878906 Z M 101.875 39.878906 " clip-rule="nonzero"/></clipPath><clipPath id="41ccb27cde"><path d="M 101.875 142.738281 L 120.875 142.738281 L 120.875 161.738281 L 101.875 161.738281 Z M 101.875 142.738281 " clip-rule="nonzero"/></clipPath><clipPath id="1187bffc21"><path d="M 111.375 142.738281 C 106.128906 142.738281 101.875 146.992188 101.875 152.238281 C 101.875 157.484375 106.128906 161.738281 111.375 161.738281 C 116.621094 161.738281 120.875 157.484375 120.875 152.238281 C 120.875 146.992188 116.621094 142.738281 111.375 142.738281 Z M 111.375 142.738281 " clip-rule="nonzero"/></clipPath><clipPath id="81bb42a7f5"><path d="M 7.324219 70.039062 L 26.324219 70.039062 L 26.324219 89.035156 L 7.324219 89.035156 Z M 7.324219 70.039062 " clip-rule="nonzero"/></clipPath><clipPath id="f6d2611502"><path d="M 16.824219 70.039062 C 11.578125 70.039062 7.324219 74.289062 7.324219 79.535156 C 7.324219 84.785156 11.578125 89.035156 16.824219 89.035156 C 22.070312 89.035156 26.324219 84.785156 26.324219 79.535156 C 26.324219 74.289062 22.070312 70.039062 16.824219 70.039062 Z M 16.824219 70.039062 " clip-rule="nonzero"/></clipPath><clipPath id="28492f2439"><path d="M 51.035156 15.253906 L 70.035156 15.253906 L 70.035156 34.25 L 51.035156 34.25 Z M 51.035156 15.253906 " clip-rule="nonzero"/></clipPath><clipPath id="bd4f27afff"><path d="M 60.535156 15.253906 C 55.289062 15.253906 51.035156 19.503906 51.035156 24.75 C 51.035156 29.996094 55.289062 34.25 60.535156 34.25 C 65.78125 34.25 70.035156 29.996094 70.035156 24.75 C 70.035156 19.503906 65.78125 15.253906 60.535156 15.253906 Z M 60.535156 15.253906 " clip-rule="nonzero"/></clipPath></defs><g clip-path="url(#8deb3f5bc6)"><path fill="#ffffff" d="M 0 0 L 172.503906 0 L 172.503906 172.503906 L 0 172.503906 Z M 0 0 " fill-opacity="1" fill-rule="nonzero"/></g><g clip-path="url(#efc43e5c43)"><g clip-path="url(#4a861fcc35)"><path fill="#000000" d="M 0 0 L 172.054688 0 L 172.054688 172.054688 L 0 172.054688 Z M 0 0 " fill-opacity="1" fill-rule="nonzero"/></g></g><g clip-path="url(#91e56e9f5a)"><g clip-path="url(#2f8bf75778)"><path fill="#ffffff" d="M 70.035156 70.039062 L 101.875 70.039062 L 101.875 101.878906 L 70.035156 101.878906 Z M 70.035156 70.039062 " fill-opacity="1" fill-rule="nonzero"/></g></g><g clip-path="url(#0855273176)"><path fill="#ffffff" d="M 86.320312 130.71875 C 84.183594 130.71875 82.058594 130.5625 79.945312 130.246094 C 77.832031 129.933594 75.753906 129.46875 73.710938 128.847656 C 71.664062 128.226562 69.679688 127.460938 67.746094 126.546875 C 65.816406 125.632812 63.964844 124.585938 62.1875 123.398438 C 60.410156 122.210938 58.730469 120.902344 57.148438 119.464844 C 55.566406 118.03125 54.097656 116.488281 52.742188 114.835938 C 51.386719 113.1875 50.160156 111.445312 49.0625 109.613281 C 47.964844 107.78125 47.007812 105.878906 46.1875 103.90625 C 45.371094 101.929688 44.703125 99.910156 44.183594 97.835938 C 43.664062 95.765625 43.300781 93.664062 43.089844 91.539062 C 42.882812 89.414062 42.828125 87.285156 42.933594 85.152344 C 43.039062 83.019531 43.300781 80.902344 43.71875 78.808594 C 44.132812 76.714844 44.703125 74.660156 45.421875 72.648438 C 46.140625 70.636719 47.003906 68.691406 48.011719 66.808594 C 49.019531 64.921875 50.160156 63.125 51.429688 61.40625 C 52.703125 59.691406 54.09375 58.078125 55.605469 56.570312 C 56.609375 55.558594 57.660156 54.597656 58.761719 53.691406 C 59.859375 52.785156 61 51.933594 62.183594 51.136719 C 63.367188 50.34375 64.585938 49.609375 65.839844 48.933594 C 67.097656 48.257812 68.382812 47.644531 69.699219 47.097656 C 71.015625 46.550781 72.351562 46.066406 73.714844 45.652344 C 75.078125 45.234375 76.460938 44.886719 77.855469 44.605469 C 79.253906 44.324219 80.660156 44.113281 82.078125 43.96875 C 83.5 43.828125 84.921875 43.757812 86.34375 43.753906 C 87.769531 43.75 89.191406 43.820312 90.609375 43.957031 C 92.03125 44.09375 93.4375 44.300781 94.835938 44.578125 C 96.234375 44.855469 97.617188 45.199219 98.980469 45.613281 C 100.34375 46.023438 101.683594 46.503906 103.003906 47.046875 C 104.320312 47.59375 105.605469 48.199219 106.863281 48.871094 C 108.121094 49.542969 109.34375 50.273438 110.527344 51.066406 C 111.714844 51.855469 112.859375 52.703125 113.960938 53.609375 C 115.0625 54.511719 116.117188 55.46875 117.125 56.476562 C 118.132812 57.484375 119.085938 58.539062 119.992188 59.640625 C 120.894531 60.742188 121.742188 61.886719 122.535156 63.070312 C 123.328125 64.257812 124.058594 65.476562 124.730469 66.734375 C 125.398438 67.992188 126.007812 69.28125 126.550781 70.597656 C 127.097656 71.914062 127.574219 73.253906 127.988281 74.621094 C 128.398438 75.984375 128.746094 77.363281 129.019531 78.761719 C 129.296875 80.160156 129.503906 81.570312 129.640625 82.988281 C 129.78125 84.40625 129.847656 85.828125 129.847656 87.253906 C 129.84375 88.679688 129.773438 90.101562 129.628906 91.519531 C 129.488281 92.9375 129.277344 94.34375 128.996094 95.742188 C 128.714844 97.140625 128.367188 98.519531 127.949219 99.882812 C 127.53125 101.246094 127.050781 102.585938 126.5 103.902344 C 125.953125 105.21875 125.339844 106.503906 124.667969 107.757812 C 123.992188 109.011719 123.257812 110.230469 122.460938 111.414062 C 121.667969 112.597656 120.816406 113.738281 119.910156 114.839844 C 119 115.9375 118.042969 116.988281 117.03125 117.996094 C 115.019531 120.015625 112.828125 121.824219 110.457031 123.410156 C 108.089844 125 105.585938 126.339844 102.949219 127.433594 C 100.3125 128.523438 97.597656 129.347656 94.796875 129.898438 C 91.996094 130.453125 89.171875 130.726562 86.320312 130.71875 Z M 86.320312 45.464844 C 63.257812 45.464844 44.5 64.222656 44.5 87.28125 C 44.5 110.34375 63.257812 129.097656 86.320312 129.097656 C 109.378906 129.097656 128.136719 110.339844 128.136719 87.28125 C 128.136719 64.226562 109.375 45.464844 86.320312 45.464844 Z M 86.320312 45.464844 " fill-opacity="1" fill-rule="nonzero"/></g><g clip-path="url(#f351e5e66c)"><g clip-path="url(#aa22df2a8b)"><path fill="#ffffff" d="M 51.035156 111.761719 L 70.035156 111.761719 L 70.035156 130.761719 L 51.035156 130.761719 Z M 51.035156 111.761719 " fill-opacity="1" fill-rule="nonzero"/></g></g><g clip-path="url(#1d7df19c45)"><path fill="#ffffff" d="M 86.558594 161.648438 C 84.757812 161.648438 82.953125 161.582031 81.15625 161.449219 C 79.355469 161.316406 77.566406 161.117188 75.78125 160.855469 C 73.996094 160.589844 72.226562 160.257812 70.464844 159.863281 C 68.707031 159.46875 66.960938 159.007812 65.238281 158.484375 C 63.511719 157.960938 61.804688 157.375 60.125 156.726562 C 58.441406 156.078125 56.785156 155.367188 55.152344 154.597656 C 53.523438 153.824219 51.921875 152.996094 50.351562 152.105469 C 48.785156 151.21875 47.25 150.273438 45.75 149.269531 C 44.25 148.269531 42.789062 147.210938 41.367188 146.101562 C 39.945312 144.992188 38.566406 143.832031 37.230469 142.621094 C 35.894531 141.410156 34.601562 140.152344 33.359375 138.84375 C 32.117188 137.539062 30.921875 136.1875 29.777344 134.792969 C 28.632812 133.398438 27.542969 131.964844 26.503906 130.492188 C 25.464844 129.015625 24.480469 127.503906 23.554688 125.957031 C 22.625 124.410156 21.757812 122.832031 20.945312 121.21875 C 20.136719 119.609375 19.386719 117.96875 18.695312 116.304688 C 18.003906 114.636719 17.375 112.949219 16.8125 111.234375 C 16.246094 109.523438 15.742188 107.792969 15.304688 106.042969 C 14.867188 104.292969 14.492188 102.527344 14.183594 100.753906 C 13.875 98.976562 13.632812 97.1875 13.457031 95.394531 C 13.28125 93.597656 13.167969 91.800781 13.125 89.996094 C 13.082031 88.195312 13.101562 86.390625 13.191406 84.589844 C 13.28125 82.789062 13.433594 80.992188 13.65625 79.203125 C 13.875 77.410156 14.164062 75.632812 14.515625 73.863281 C 14.867188 72.09375 15.285156 70.339844 15.765625 68.601562 C 16.246094 66.863281 16.789062 65.144531 17.398438 63.449219 C 18.003906 61.75 18.675781 60.074219 19.40625 58.425781 C 20.136719 56.777344 20.925781 55.15625 21.777344 53.566406 C 22.628906 51.976562 23.535156 50.417969 24.5 48.894531 C 25.464844 47.371094 26.484375 45.886719 27.558594 44.4375 C 28.632812 42.988281 29.761719 41.582031 30.9375 40.214844 C 32.117188 38.847656 33.34375 37.527344 34.617188 36.253906 C 35.46875 35.398438 36.335938 34.566406 37.226562 33.753906 C 38.117188 32.941406 39.027344 32.152344 39.957031 31.386719 C 40.886719 30.621094 41.832031 29.878906 42.796875 29.15625 C 43.761719 28.4375 44.746094 27.742188 45.746094 27.070312 C 46.746094 26.398438 47.761719 25.75 48.792969 25.128906 C 49.824219 24.507812 50.871094 23.910156 51.929688 23.339844 C 52.992188 22.769531 54.066406 22.226562 55.152344 21.707031 C 56.242188 21.191406 57.339844 20.699219 58.453125 20.238281 C 59.5625 19.773438 60.6875 19.335938 61.820312 18.929688 C 62.953125 18.519531 64.09375 18.140625 65.246094 17.789062 C 66.398438 17.4375 67.558594 17.113281 68.726562 16.820312 C 69.894531 16.523438 71.070312 16.257812 72.25 16.019531 C 73.429688 15.78125 74.617188 15.574219 75.808594 15.394531 C 77 15.21875 78.191406 15.066406 79.390625 14.949219 C 80.589844 14.828125 81.789062 14.738281 82.992188 14.675781 C 84.195312 14.613281 85.398438 14.582031 86.605469 14.582031 C 87.808594 14.578125 89.011719 14.609375 90.214844 14.664062 C 91.417969 14.722656 92.621094 14.808594 93.820312 14.925781 C 95.015625 15.042969 96.210938 15.1875 97.40625 15.363281 C 98.597656 15.539062 99.78125 15.742188 100.964844 15.976562 C 102.144531 16.210938 103.320312 16.472656 104.488281 16.765625 C 105.65625 17.054688 106.820312 17.375 107.972656 17.722656 C 109.125 18.074219 110.269531 18.449219 111.402344 18.855469 C 112.539062 19.257812 113.660156 19.691406 114.773438 20.152344 C 115.886719 20.613281 116.988281 21.097656 118.078125 21.613281 C 119.167969 22.128906 120.242188 22.667969 121.304688 23.234375 C 122.367188 23.800781 123.414062 24.394531 124.449219 25.015625 C 125.480469 25.632812 126.5 26.277344 127.5 26.945312 C 128.503906 27.613281 129.488281 28.308594 130.457031 29.023438 C 131.421875 29.742188 132.371094 30.480469 133.304688 31.246094 C 134.234375 32.011719 135.148438 32.796875 136.039062 33.605469 C 136.933594 34.414062 137.804688 35.242188 138.65625 36.09375 C 139.507812 36.949219 140.335938 37.820312 141.144531 38.710938 C 141.953125 39.605469 142.742188 40.515625 143.503906 41.449219 C 144.269531 42.378906 145.011719 43.328125 145.726562 44.296875 C 146.445312 45.261719 147.136719 46.246094 147.804688 47.25 C 148.476562 48.25 149.117188 49.269531 149.738281 50.300781 C 150.355469 51.335938 150.949219 52.382812 151.515625 53.445312 C 152.082031 54.507812 152.625 55.585938 153.136719 56.671875 C 153.652344 57.761719 154.140625 58.863281 154.601562 59.976562 C 155.058594 61.089844 155.492188 62.214844 155.898438 63.347656 C 156.300781 64.484375 156.679688 65.625 157.027344 66.78125 C 157.375 67.933594 157.695312 69.09375 157.988281 70.261719 C 158.277344 71.429688 158.539062 72.605469 158.773438 73.785156 C 159.007812 74.96875 159.210938 76.15625 159.386719 77.347656 C 159.5625 78.539062 159.710938 79.734375 159.824219 80.933594 C 159.941406 82.132812 160.027344 83.332031 160.085938 84.535156 C 160.144531 85.738281 160.171875 86.941406 160.167969 88.148438 C 160.167969 89.351562 160.136719 90.554688 160.074219 91.757812 C 160.015625 92.960938 159.921875 94.160156 159.804688 95.359375 C 159.683594 96.558594 159.535156 97.753906 159.355469 98.945312 C 159.175781 100.136719 158.96875 101.320312 158.730469 102.5 C 158.492188 103.683594 158.226562 104.855469 157.933594 106.023438 C 157.636719 107.191406 157.3125 108.351562 156.960938 109.503906 C 156.609375 110.65625 156.230469 111.796875 155.820312 112.933594 C 155.414062 114.066406 154.976562 115.1875 154.515625 116.300781 C 154.050781 117.410156 153.558594 118.511719 153.042969 119.597656 C 152.523438 120.6875 151.980469 121.761719 151.410156 122.820312 C 150.839844 123.882812 150.246094 124.925781 149.621094 125.960938 C 149 126.992188 148.355469 128.007812 147.683594 129.007812 C 147.011719 130.003906 146.3125 130.988281 145.59375 131.953125 C 144.875 132.917969 144.128906 133.867188 143.363281 134.796875 C 142.597656 135.722656 141.808594 136.632812 140.996094 137.523438 C 140.183594 138.414062 139.351562 139.285156 138.496094 140.132812 C 135.09375 143.554688 131.390625 146.605469 127.382812 149.292969 C 123.375 151.980469 119.140625 154.246094 114.683594 156.09375 C 110.226562 157.9375 105.632812 159.328125 100.898438 160.265625 C 96.164062 161.199219 91.386719 161.660156 86.558594 161.648438 Z M 86.558594 17.472656 C 47.5625 17.472656 15.839844 49.199219 15.839844 88.195312 C 15.839844 127.191406 47.5625 158.910156 86.558594 158.910156 C 125.558594 158.910156 157.277344 127.1875 157.277344 88.195312 C 157.277344 49.199219 125.554688 17.472656 86.558594 17.472656 Z M 86.558594 17.472656 " fill-opacity="1" fill-rule="nonzero"/></g><g clip-path="url(#24b6f339b0)"><g clip-path="url(#f62a344908)"><path fill="#ffffff" d="M 145.585938 58.875 L 164.585938 58.875 L 164.585938 77.875 L 145.585938 77.875 Z M 145.585938 58.875 " fill-opacity="1" fill-rule="nonzero"/></g></g><g clip-path="url(#19daac09fd)"><g clip-path="url(#147d687c9e)"><path fill="#ffffff" d="M 92.375 39.878906 L 111.375 39.878906 L 111.375 58.875 L 92.375 58.875 Z M 92.375 39.878906 " fill-opacity="1" fill-rule="nonzero"/></g></g><g clip-path="url(#41ccb27cde)"><g clip-path="url(#1187bffc21)"><path fill="#ffffff" d="M 101.875 142.738281 L 120.875 142.738281 L 120.875 161.738281 L 101.875 161.738281 Z M 101.875 142.738281 " fill-opacity="1" fill-rule="nonzero"/></g></g><g clip-path="url(#81bb42a7f5)"><g clip-path="url(#f6d2611502)"><path fill="#ffffff" d="M 7.324219 70.039062 L 26.324219 70.039062 L 26.324219 89.035156 L 7.324219 89.035156 Z M 7.324219 70.039062 " fill-opacity="1" fill-rule="nonzero"/></g></g><g clip-path="url(#28492f2439)"><g clip-path="url(#bd4f27afff)"><path fill="#ffffff" d="M 51.035156 15.253906 L 70.035156 15.253906 L 70.035156 34.25 L 51.035156 34.25 Z M 51.035156 15.253906 " fill-opacity="1" fill-rule="nonzero"/></g></g></svg>