<svg xmlns="http://www.w3.org/2000/svg" xmlns:xlink="http://www.w3.org/1999/xlink" width="231" zoomAndPan="magnify" viewBox="0 0 173.25 67.499998" height="90" preserveAspectRatio="xMidYMid meet" version="1.0"><defs><g/><clipPath id="e98fd57c78"><path d="M 0.265625 0 L 171.929688 0 L 171.929688 66.789062 L 0.265625 66.789062 Z M 0.265625 0 " clip-rule="nonzero"/></clipPath><clipPath id="7f3c3376ed"><path d="M 27.066406 0 L 144.992188 0 C 159.792969 0 171.792969 12 171.792969 26.800781 L 171.792969 39.988281 C 171.792969 54.789062 159.792969 66.789062 144.992188 66.789062 L 27.066406 66.789062 C 12.265625 66.789062 0.265625 54.789062 0.265625 39.988281 L 0.265625 26.800781 C 0.265625 12 12.265625 0 27.066406 0 Z M 27.066406 0 " clip-rule="nonzero"/></clipPath><clipPath id="777f5e7953"><path d="M 46 4.46875 L 125 4.46875 L 125 37 L 46 37 Z M 46 4.46875 " clip-rule="nonzero"/></clipPath><clipPath id="0eeb129ee9"><path d="M 45.507812 14 L 126.65625 14 L 126.65625 62.539062 L 45.507812 62.539062 Z M 45.507812 14 " clip-rule="nonzero"/></clipPath></defs><g clip-path="url(#e98fd57c78)"><g clip-path="url(#7f3c3376ed)"><path fill="#0d00ff" d="M 0.265625 0 L 171.671875 0 L 171.671875 66.789062 L 0.265625 66.789062 Z M 0.265625 0 " fill-opacity="1" fill-rule="nonzero"/></g></g><g clip-path="url(#777f5e7953)"><path fill="#ffffff" d="M 80.726562 34.335938 C 81.488281 34.921875 82.320312 35.367188 83.226562 35.675781 C 84.132812 35.980469 85.066406 36.136719 86.023438 36.136719 C 86.980469 36.136719 87.910156 35.980469 88.820312 35.675781 C 89.726562 35.367188 90.558594 34.921875 91.316406 34.335938 L 124.921875 8.15625 C 124.523438 7.585938 124.0625 7.074219 123.539062 6.613281 C 123.015625 6.15625 122.445312 5.765625 121.832031 5.445312 C 121.214844 5.125 120.566406 4.882812 119.894531 4.71875 C 119.21875 4.554688 118.535156 4.472656 117.839844 4.46875 L 54.21875 4.46875 C 53.480469 4.472656 52.757812 4.566406 52.046875 4.753906 C 51.332031 4.9375 50.65625 5.210938 50.015625 5.570312 C 49.371094 5.929688 48.785156 6.363281 48.253906 6.875 C 47.722656 7.382812 47.261719 7.949219 46.875 8.578125 Z M 80.726562 34.335938 " fill-opacity="1" fill-rule="nonzero"/></g><g clip-path="url(#0eeb129ee9)"><path fill="#ffffff" d="M 94.859375 38.921875 C 94.230469 39.402344 93.570312 39.832031 92.871094 40.207031 C 92.171875 40.578125 91.449219 40.894531 90.699219 41.148438 C 89.949219 41.402344 89.179688 41.59375 88.398438 41.722656 C 87.617188 41.851562 86.832031 41.917969 86.039062 41.917969 C 85.246094 41.917969 84.460938 41.851562 83.679688 41.722656 C 82.898438 41.59375 82.132812 41.402344 81.382812 41.148438 C 80.632812 40.894531 79.90625 40.578125 79.210938 40.207031 C 78.511719 39.832031 77.847656 39.402344 77.21875 38.921875 L 45.542969 14.832031 L 45.542969 53.632812 C 45.542969 54.203125 45.597656 54.765625 45.707031 55.324219 C 45.820312 55.882812 45.984375 56.425781 46.203125 56.953125 C 46.421875 57.480469 46.6875 57.980469 47.003906 58.453125 C 47.320312 58.925781 47.679688 59.363281 48.082031 59.765625 C 48.484375 60.167969 48.925781 60.53125 49.398438 60.847656 C 49.871094 61.164062 50.371094 61.429688 50.898438 61.648438 C 51.425781 61.867188 51.964844 62.03125 52.523438 62.140625 C 53.085938 62.253906 53.648438 62.308594 54.21875 62.308594 L 117.839844 62.308594 C 118.410156 62.308594 118.972656 62.253906 119.53125 62.140625 C 120.089844 62.03125 120.632812 61.867188 121.160156 61.648438 C 121.683594 61.429688 122.183594 61.164062 122.660156 60.847656 C 123.132812 60.53125 123.570312 60.167969 123.972656 59.765625 C 124.375 59.363281 124.734375 58.925781 125.050781 58.453125 C 125.367188 57.980469 125.636719 57.480469 125.855469 56.953125 C 126.070312 56.425781 126.238281 55.882812 126.347656 55.324219 C 126.457031 54.765625 126.515625 54.203125 126.515625 53.632812 L 126.515625 14.257812 Z M 94.859375 38.921875 " fill-opacity="1" fill-rule="nonzero"/></g><g fill="#000000" fill-opacity="1"><g transform="translate(81.403072, 44.051034)"><g><path d="M 0.1875 0 L 0.1875 -1.5 L 0.34375 -1.5 L 0.34375 -0.625 L 0.375 -0.625 L 0.765625 -1.0625 L 0.9375 -1.0625 L 0.9375 -1.046875 L 0.515625 -0.5625 L 0.96875 -0.03125 L 0.96875 0 L 0.796875 0 L 0.375 -0.5 L 0.34375 -0.5 L 0.34375 0 Z M 0.1875 0 "/></g></g></g></svg>