<svg xmlns="http://www.w3.org/2000/svg" xmlns:xlink="http://www.w3.org/1999/xlink" width="231" zoomAndPan="magnify" viewBox="0 0 173.25 67.499998" height="90" preserveAspectRatio="xMidYMid meet" version="1.0"><defs><g/><clipPath id="c03b006dc3"><path d="M 0.265625 0 L 171.929688 0 L 171.929688 66.789062 L 0.265625 66.789062 Z M 0.265625 0 " clip-rule="nonzero"/></clipPath><clipPath id="98f767ce42"><path d="M 27.066406 0 L 144.992188 0 C 159.792969 0 171.792969 12 171.792969 26.800781 L 171.792969 39.988281 C 171.792969 54.789062 159.792969 66.789062 144.992188 66.789062 L 27.066406 66.789062 C 12.265625 66.789062 0.265625 54.789062 0.265625 39.988281 L 0.265625 26.800781 C 0.265625 12 12.265625 0 27.066406 0 Z M 27.066406 0 " clip-rule="nonzero"/></clipPath><clipPath id="4a8187d8f5"><path d="M 17 3.121094 L 153 3.121094 L 153 61 L 17 61 Z M 17 3.121094 " clip-rule="nonzero"/></clipPath></defs><g clip-path="url(#c03b006dc3)"><g clip-path="url(#98f767ce42)"><path fill="#0d00ff" d="M 0.265625 0 L 171.671875 0 L 171.671875 66.789062 L 0.265625 66.789062 Z M 0.265625 0 " fill-opacity="1" fill-rule="nonzero"/></g></g><g clip-path="url(#4a8187d8f5)"><path fill="#ffffff" d="M 123.621094 3.121094 C 122.246094 3.117188 120.878906 3.210938 119.519531 3.402344 C 118.160156 3.59375 116.820312 3.878906 115.503906 4.265625 C 114.183594 4.648438 112.902344 5.125 111.652344 5.695312 C 110.402344 6.261719 109.199219 6.917969 108.042969 7.660156 C 106.886719 8.402344 105.792969 9.222656 104.753906 10.125 C 103.71875 11.023438 102.75 11.992188 101.851562 13.03125 C 100.953125 14.070312 100.136719 15.167969 99.394531 16.324219 C 98.65625 17.480469 98.003906 18.6875 97.4375 19.9375 L 29.933594 19.9375 C 29.269531 19.9375 28.703125 20.171875 28.234375 20.640625 L 18.625 30.25 C 18.402344 30.476562 18.226562 30.734375 18.105469 31.027344 C 17.984375 31.324219 17.921875 31.628906 17.921875 31.949219 C 17.921875 32.265625 17.984375 32.574219 18.105469 32.867188 C 18.226562 33.160156 18.402344 33.421875 18.625 33.648438 L 28.234375 43.253906 C 28.703125 43.722656 29.269531 43.960938 29.933594 43.960938 L 39.542969 43.960938 C 40.207031 43.960938 40.773438 43.722656 41.242188 43.253906 L 46.75 37.746094 L 52.257812 43.253906 C 52.484375 43.480469 52.742188 43.65625 53.035156 43.777344 C 53.332031 43.898438 53.636719 43.960938 53.957031 43.960938 C 54.273438 43.960938 54.582031 43.898438 54.875 43.777344 C 55.167969 43.65625 55.429688 43.480469 55.652344 43.253906 L 61.164062 37.746094 L 66.671875 43.253906 C 66.894531 43.480469 67.15625 43.65625 67.449219 43.777344 C 67.746094 43.898438 68.050781 43.960938 68.371094 43.960938 C 68.6875 43.960938 68.992188 43.898438 69.289062 43.777344 C 69.582031 43.65625 69.84375 43.480469 70.066406 43.253906 L 75.574219 37.746094 L 81.085938 43.253906 C 81.554688 43.722656 82.121094 43.960938 82.78125 43.960938 L 97.4375 43.960938 C 97.792969 44.738281 98.183594 45.5 98.609375 46.246094 C 99.035156 46.988281 99.496094 47.714844 99.984375 48.417969 C 100.476562 49.121094 100.996094 49.800781 101.546875 50.457031 C 102.097656 51.117188 102.675781 51.746094 103.285156 52.351562 C 103.890625 52.957031 104.527344 53.535156 105.183594 54.085938 C 105.84375 54.632812 106.527344 55.152344 107.230469 55.640625 C 107.9375 56.128906 108.660156 56.582031 109.40625 57.007812 C 110.152344 57.429688 110.917969 57.820312 111.699219 58.171875 C 112.480469 58.527344 113.273438 58.847656 114.082031 59.132812 C 114.890625 59.417969 115.710938 59.664062 116.542969 59.875 C 117.375 60.085938 118.214844 60.257812 119.0625 60.394531 C 119.90625 60.53125 120.757812 60.628906 121.613281 60.6875 C 122.46875 60.75 123.328125 60.769531 124.183594 60.753906 C 125.042969 60.738281 125.894531 60.683594 126.75 60.589844 C 127.601562 60.496094 128.449219 60.367188 129.289062 60.199219 C 130.128906 60.03125 130.960938 59.824219 131.785156 59.582031 C 132.605469 59.339844 133.417969 59.058594 134.214844 58.746094 C 135.011719 58.429688 135.792969 58.078125 136.5625 57.695312 C 137.328125 57.308594 138.074219 56.890625 138.804688 56.441406 C 139.535156 55.988281 140.242188 55.503906 140.925781 54.992188 C 141.613281 54.476562 142.273438 53.933594 142.910156 53.359375 C 143.550781 52.785156 144.160156 52.183594 144.742188 51.554688 C 145.328125 50.925781 145.882812 50.273438 146.40625 49.59375 C 146.933594 48.917969 147.425781 48.21875 147.890625 47.496094 C 148.351562 46.773438 148.78125 46.03125 149.179688 45.273438 C 149.574219 44.511719 149.9375 43.734375 150.265625 42.941406 C 150.59375 42.148438 150.882812 41.34375 151.140625 40.527344 C 151.394531 39.707031 151.613281 38.878906 151.796875 38.039062 C 151.976562 37.203125 152.121094 36.359375 152.226562 35.507812 C 152.332031 34.65625 152.402344 33.800781 152.429688 32.945312 C 152.460938 32.085938 152.453125 31.230469 152.40625 30.375 C 152.359375 29.519531 152.273438 28.664062 152.152344 27.816406 C 152.027344 26.96875 151.867188 26.125 151.671875 25.292969 C 151.472656 24.457031 151.238281 23.632812 150.964844 22.820312 C 150.695312 22.003906 150.386719 21.207031 150.046875 20.417969 C 149.703125 19.632812 149.324219 18.863281 148.914062 18.113281 C 148.503906 17.359375 148.058594 16.625 147.582031 15.914062 C 147.105469 15.203125 146.597656 14.511719 146.058594 13.84375 C 145.519531 13.175781 144.953125 12.535156 144.355469 11.917969 C 143.761719 11.300781 143.136719 10.710938 142.488281 10.148438 C 141.839844 9.589844 141.167969 9.058594 140.472656 8.554688 C 139.777344 8.054688 139.058594 7.585938 138.324219 7.148438 C 137.585938 6.710938 136.828125 6.308594 136.054688 5.9375 C 135.28125 5.566406 134.492188 5.234375 133.6875 4.933594 C 132.886719 4.636719 132.070312 4.371094 131.242188 4.144531 C 130.414062 3.917969 129.578125 3.730469 128.734375 3.578125 C 127.890625 3.425781 127.042969 3.3125 126.1875 3.234375 C 125.332031 3.160156 124.476562 3.121094 123.621094 3.121094 Z M 135.632812 39.15625 C 135.15625 39.15625 134.691406 39.109375 134.226562 39.015625 C 133.761719 38.925781 133.3125 38.789062 132.875 38.605469 C 132.4375 38.425781 132.019531 38.203125 131.628906 37.941406 C 131.234375 37.675781 130.871094 37.378906 130.535156 37.042969 C 130.199219 36.710938 129.902344 36.34375 129.640625 35.953125 C 129.375 35.558594 129.15625 35.144531 128.972656 34.707031 C 128.792969 34.269531 128.65625 33.816406 128.5625 33.355469 C 128.472656 32.890625 128.425781 32.421875 128.425781 31.949219 C 128.425781 31.476562 128.472656 31.007812 128.5625 30.542969 C 128.65625 30.078125 128.792969 29.628906 128.972656 29.191406 C 129.15625 28.753906 129.375 28.335938 129.640625 27.945312 C 129.902344 27.550781 130.199219 27.1875 130.535156 26.851562 C 130.871094 26.519531 131.234375 26.21875 131.628906 25.957031 C 132.019531 25.691406 132.4375 25.472656 132.875 25.289062 C 133.3125 25.109375 133.761719 24.972656 134.226562 24.878906 C 134.691406 24.789062 135.15625 24.742188 135.632812 24.742188 C 136.105469 24.742188 136.574219 24.789062 137.039062 24.878906 C 137.5 24.972656 137.953125 25.109375 138.390625 25.289062 C 138.828125 25.472656 139.242188 25.691406 139.636719 25.957031 C 140.027344 26.21875 140.394531 26.519531 140.726562 26.851562 C 141.0625 27.1875 141.359375 27.550781 141.625 27.945312 C 141.886719 28.335938 142.109375 28.753906 142.289062 29.191406 C 142.46875 29.628906 142.605469 30.078125 142.699219 30.542969 C 142.792969 31.007812 142.839844 31.476562 142.839844 31.949219 C 142.835938 32.421875 142.789062 32.890625 142.699219 33.355469 C 142.605469 33.816406 142.46875 34.269531 142.289062 34.703125 C 142.105469 35.140625 141.882812 35.558594 141.621094 35.949219 C 141.359375 36.34375 141.058594 36.707031 140.726562 37.042969 C 140.390625 37.375 140.027344 37.675781 139.632812 37.9375 C 139.238281 38.199219 138.824219 38.421875 138.386719 38.605469 C 137.949219 38.785156 137.5 38.921875 137.035156 39.015625 C 136.574219 39.109375 136.105469 39.15625 135.632812 39.15625 Z M 135.632812 39.15625 " fill-opacity="1" fill-rule="nonzero"/></g><g fill="#000000" fill-opacity="1"><g transform="translate(81.403072, 44.051034)"><g><path d="M 0.1875 0 L 0.1875 -1.5 L 0.34375 -1.5 L 0.34375 -0.625 L 0.375 -0.625 L 0.765625 -1.0625 L 0.9375 -1.0625 L 0.9375 -1.046875 L 0.515625 -0.5625 L 0.96875 -0.03125 L 0.96875 0 L 0.796875 0 L 0.375 -0.5 L 0.34375 -0.5 L 0.34375 0 Z M 0.1875 0 "/></g></g></g></svg>