<svg xmlns="http://www.w3.org/2000/svg" xmlns:xlink="http://www.w3.org/1999/xlink" width="231" zoomAndPan="magnify" viewBox="0 0 173.25 67.499998" height="90" preserveAspectRatio="xMidYMid meet" version="1.0"><defs><g/><clipPath id="1beab87e38"><path d="M 0.265625 0 L 171.929688 0 L 171.929688 66.789062 L 0.265625 66.789062 Z M 0.265625 0 " clip-rule="nonzero"/></clipPath><clipPath id="d8bc6dd4ed"><path d="M 27.066406 0 L 144.992188 0 C 159.792969 0 171.792969 12 171.792969 26.800781 L 171.792969 39.988281 C 171.792969 54.789062 159.792969 66.789062 144.992188 66.789062 L 27.066406 66.789062 C 12.265625 66.789062 0.265625 54.789062 0.265625 39.988281 L 0.265625 26.800781 C 0.265625 12 12.265625 0 27.066406 0 Z M 27.066406 0 " clip-rule="nonzero"/></clipPath><clipPath id="f030a3f480"><path d="M 57 3.914062 L 115.363281 3.914062 L 115.363281 62.726562 L 57 62.726562 Z M 57 3.914062 " clip-rule="nonzero"/></clipPath></defs><g clip-path="url(#1beab87e38)"><g clip-path="url(#d8bc6dd4ed)"><path fill="#0d00ff" d="M 0.265625 0 L 171.671875 0 L 171.671875 66.789062 L 0.265625 66.789062 Z M 0.265625 0 " fill-opacity="1" fill-rule="nonzero"/></g></g><g clip-path="url(#f030a3f480)"><path fill="#ffffff" d="M 69.984375 20.0625 C 69.984375 19.535156 70.011719 19.007812 70.0625 18.484375 C 70.117188 17.957031 70.195312 17.4375 70.296875 16.917969 C 70.402344 16.402344 70.527344 15.890625 70.683594 15.382812 C 70.835938 14.878906 71.015625 14.382812 71.214844 13.894531 C 71.417969 13.40625 71.644531 12.929688 71.894531 12.464844 C 72.140625 12 72.414062 11.546875 72.707031 11.109375 C 73 10.671875 73.316406 10.246094 73.648438 9.839844 C 73.984375 9.429688 74.339844 9.039062 74.710938 8.667969 C 75.085938 8.292969 75.476562 7.9375 75.882812 7.605469 C 76.292969 7.269531 76.714844 6.957031 77.152344 6.660156 C 77.59375 6.367188 78.046875 6.097656 78.511719 5.847656 C 78.976562 5.597656 79.453125 5.375 79.941406 5.171875 C 80.425781 4.96875 80.925781 4.789062 81.429688 4.636719 C 81.933594 4.484375 82.445312 4.355469 82.964844 4.25 C 83.480469 4.148438 84.003906 4.070312 84.527344 4.015625 C 85.054688 3.964844 85.578125 3.9375 86.109375 3.9375 C 107.417969 4.691406 107.460938 35.367188 86.164062 36.1875 C 85.632812 36.1875 85.105469 36.164062 84.578125 36.113281 C 84.050781 36.0625 83.527344 35.984375 83.011719 35.882812 C 82.492188 35.78125 81.976562 35.652344 81.472656 35.5 C 80.964844 35.347656 80.46875 35.171875 79.976562 34.96875 C 79.488281 34.769531 79.011719 34.542969 78.542969 34.292969 C 78.078125 34.046875 77.621094 33.777344 77.183594 33.484375 C 76.742188 33.1875 76.316406 32.875 75.90625 32.539062 C 75.496094 32.207031 75.105469 31.851562 74.730469 31.476562 C 74.355469 31.105469 74 30.714844 73.664062 30.304688 C 73.328125 29.898438 73.011719 29.472656 72.71875 29.035156 C 72.425781 28.59375 72.152344 28.140625 71.902344 27.675781 C 71.652344 27.207031 71.425781 26.730469 71.222656 26.242188 C 71.019531 25.753906 70.839844 25.257812 70.6875 24.75 C 70.53125 24.246094 70.402344 23.734375 70.296875 23.214844 C 70.195312 22.695312 70.117188 22.171875 70.0625 21.644531 C 70.011719 21.121094 69.984375 20.59375 69.984375 20.0625 Z M 102.425781 36.191406 C 101.988281 35.925781 101.511719 35.796875 100.996094 35.808594 C 100.480469 35.820312 100.011719 35.972656 99.589844 36.261719 C 98.625 37.042969 97.605469 37.738281 96.523438 38.34375 C 95.441406 38.949219 94.3125 39.457031 93.144531 39.867188 C 91.976562 40.277344 90.777344 40.582031 89.554688 40.789062 C 88.332031 40.992188 87.101562 41.089844 85.863281 41.078125 C 84.621094 41.070312 83.394531 40.957031 82.171875 40.734375 C 80.953125 40.515625 79.761719 40.191406 78.597656 39.761719 C 77.433594 39.335938 76.316406 38.8125 75.242188 38.191406 C 74.167969 37.574219 73.15625 36.867188 72.207031 36.070312 C 71.84375 35.902344 71.460938 35.832031 71.0625 35.851562 C 70.664062 35.871094 70.289062 35.984375 69.945312 36.191406 C 67.957031 37.515625 66.15625 39.0625 64.546875 40.832031 C 62.9375 42.601562 61.570312 44.542969 60.441406 46.652344 C 59.316406 48.761719 58.460938 50.976562 57.882812 53.296875 C 57.300781 55.617188 57.015625 57.972656 57.019531 60.363281 C 57.019531 60.691406 57.082031 61.007812 57.207031 61.3125 C 57.332031 61.617188 57.511719 61.882812 57.742188 62.117188 C 57.976562 62.347656 58.246094 62.527344 58.546875 62.652344 C 58.851562 62.777344 59.167969 62.839844 59.496094 62.839844 L 112.800781 62.839844 C 113.128906 62.839844 113.445312 62.777344 113.75 62.652344 C 114.054688 62.527344 114.320312 62.347656 114.554688 62.117188 C 114.785156 61.882812 114.964844 61.617188 115.089844 61.3125 C 115.214844 61.007812 115.277344 60.691406 115.277344 60.363281 C 115.277344 57.976562 114.988281 55.625 114.410156 53.3125 C 113.832031 50.996094 112.980469 48.785156 111.859375 46.679688 C 110.742188 44.570312 109.382812 42.632812 107.785156 40.859375 C 106.191406 39.082031 104.402344 37.527344 102.425781 36.191406 Z M 102.425781 36.191406 " fill-opacity="1" fill-rule="nonzero"/></g><g fill="#000000" fill-opacity="1"><g transform="translate(81.403072, 44.051034)"><g><path d="M 0.1875 0 L 0.1875 -1.5 L 0.34375 -1.5 L 0.34375 -0.625 L 0.375 -0.625 L 0.765625 -1.0625 L 0.9375 -1.0625 L 0.9375 -1.046875 L 0.515625 -0.5625 L 0.96875 -0.03125 L 0.96875 0 L 0.796875 0 L 0.375 -0.5 L 0.34375 -0.5 L 0.34375 0 Z M 0.1875 0 "/></g></g></g></svg>